# xmcd
#
# Track frame offsets: 
#        150
#        9463
#        22330
#        28763
#        45871
#        59401
#        73089
#        90179
#        106293
#        120027
#        139877
#        156196
#        171156
#        187349
#
# Disc length: 2765 seconds
#
# Revision: 0
# Processed by: cddbd v1.5.1PL2 Copyright (c) Steve Scherf et al.
# Submitted via: ExactAudioCopy v0.95b3
#
DISCID=b60acb0e
DTITLE=alexandru andries - vreme rea
DYEAR=2000
DGENRE=Blues
TTITLE0=cea mai frumoasa zi
TTITLE1=agresiv
TTITLE2=arc
TTITLE3=culori
TTITLE4=amortit
TTITLE5=vreme rea
TTITLE6=la radio
TTITLE7=seara, ploaie, parc
TTITLE8=dimineata
TTITLE9=nu-mi iese nimic
TTITLE10=cina in doi
TTITLE11=pe scena
TTITLE12=dor de tine
TTITLE13=farmece
EXTD=
EXTT0=
EXTT1=
EXTT2=
EXTT3=
EXTT4=
EXTT5=
EXTT6=
EXTT7=
EXTT8=
EXTT9=
EXTT10=
EXTT11=
EXTT12=
EXTT13=
PLAYORDER=
